<?xml version="1.0" standalone="no"?>
<!DOCTYPE svg PUBLIC "-//W3C//DTD SVG 20010904//EN"
 "http://www.w3.org/TR/2001/REC-SVG-20010904/DTD/svg10.dtd">
<svg version="1.0" xmlns="http://www.w3.org/2000/svg"
 width="128.000000pt" height="128.000000pt" viewBox="0 0 128.000000 128.000000"
 preserveAspectRatio="xMidYMid meet">
<metadata>
Created by potrace 1.14, written by Peter Selinger 2001-2017
</metadata>
<g transform="translate(0.000000,128.000000) scale(0.100000,-0.100000)"
fill="#000000" stroke="none">
<path d="M134 1196 c-3 -9 2 -28 11 -43 17 -26 17 -27 -8 -47 -19 -16 -24 -27
-20 -48 4 -23 0 -29 -32 -42 -25 -11 -35 -21 -32 -31 4 -8 -6 -27 -23 -44 -34
-34 -36 -46 -15 -98 8 -21 26 -83 40 -138 44 -173 155 -366 267 -462 25 -22
73 -56 105 -76 59 -35 160 -73 170 -64 3 3 -14 11 -36 18 -23 7 -46 18 -52 25
-7 9 5 8 42 -4 31 -10 54 -24 57 -34 3 -12 19 -19 61 -23 31 -4 67 -9 81 -11
35 -6 168 -5 210 1 19 3 53 7 75 8 22 2 46 6 53 11 7 4 32 9 55 10 76 5 137
26 137 47 0 18 -44 38 -56 26 -3 -3 -19 -1 -35 3 -17 5 -31 5 -35 -1 -3 -5
-15 -7 -27 -3 -12 4 -37 6 -54 5 -36 -2 -40 4 -18 33 20 27 19 36 -5 36 -11 0
-34 -14 -52 -30 -36 -35 -37 -35 -109 -14 -100 30 -186 84 -261 163 -121 129
-149 209 -164 468 -7 114 -3 120 66 97 19 -7 40 -9 48 -7 23 9 -26 51 -82 69
-52 17 -110 48 -134 71 -7 7 -22 14 -33 14 -10 1 -25 2 -31 3 -7 0 -14 11 -16
23 -3 17 -11 23 -40 25 -34 3 -37 6 -42 38 -4 29 -10 36 -33 38 -18 2 -29 -2
-33 -12z m51 -6 c4 -6 -5 -10 -20 -10 -15 0 -24 4 -20 10 3 6 12 10 20 10 8 0
17 -4 20 -10z m70 -118 c16 -11 16 -32 0 -32 -8 0 -19 9 -25 20 -8 15 -8 20 2
20 7 0 18 -4 23 -8z m54 -59 c-12 -33 -7 -38 31 -25 27 10 30 9 28 -6 -2 -9 5
-18 14 -20 12 -2 15 2 11 18 -5 19 -2 20 38 17 81 -7 52 -46 -51 -70 -36 -8
-72 -15 -80 -15 -8 1 -29 -2 -47 -6 -19 -4 -34 -3 -38 3 -3 6 -1 11 5 11 6 0
8 4 5 10 -4 6 -13 5 -26 -3 -18 -11 -18 -13 -2 -25 16 -11 16 -14 3 -22 -31
-20 -54 -7 -57 31 -1 23 4 28 30 34 18 3 46 7 64 7 20 1 30 5 26 12 -3 6 0 5
8 -1 16 -15 43 -17 34 -3 -4 6 -11 8 -16 5 -5 -3 -6 0 -3 8 6 15 -20 42 -34
34 -4 -3 -14 -2 -22 4 -11 6 -8 9 12 9 15 0 29 4 32 8 2 4 14 8 25 9 18 1 19
-1 10 -24z m-199 -111 c13 -12 16 -22 10 -32 -12 -19 -46 0 -42 24 2 11 -2 14
-13 10 -14 -6 -19 -18 -16 -36 0 -5 -3 -8 -9 -8 -20 0 -10 41 13 50 32 13 36
12 57 -8z m338 -33 c-1 -16 -8 -31 -14 -33 -8 -3 -10 3 -6 16 3 14 1 19 -6 14
-15 -9 -16 -66 -2 -66 6 0 10 5 10 12 0 7 3 8 9 2 16 -17 20 -115 5 -121 -8
-3 -11 -9 -8 -14 3 -5 10 -7 15 -4 5 4 9 2 9 -4 0 -5 -4 -13 -10 -16 -5 -3
-10 -11 -10 -18 0 -8 3 -8 12 1 9 9 15 0 27 -41 8 -28 15 -65 15 -82 1 -16 9
-38 19 -47 9 -10 17 -15 17 -11 0 4 7 -2 15 -12 63 -84 85 -117 85 -125 0 -14
79 -70 99 -70 9 0 34 -14 55 -30 22 -17 47 -30 57 -30 10 0 21 -4 24 -10 3 -5
17 -10 31 -10 13 0 24 -5 24 -11 0 -13 -53 -5 -102 15 -51 22 -106 26 -119 9
-10 -11 -14 -11 -28 0 -9 8 -24 17 -33 20 -10 4 -18 16 -18 27 0 14 -4 19 -12
14 -7 -5 -9 -2 -5 8 7 20 -32 54 -96 86 -40 19 -47 25 -37 37 16 19 5 34 -37
52 -35 14 -35 14 -17 35 19 20 18 20 -11 44 -17 14 -38 22 -48 20 -26 -6 -47
3 -47 22 0 8 -7 24 -17 34 -15 17 -15 18 1 18 13 0 15 4 6 19 -14 28 -12 38 4
16 8 -12 19 -16 31 -12 16 7 16 9 2 30 -8 12 -23 23 -33 25 -16 3 -17 1 -4 -7
13 -9 13 -11 -1 -11 -9 0 -22 -7 -29 -15 -7 -8 -16 -12 -21 -9 -15 9 -10 22 9
27 13 4 13 5 -4 6 -29 1 -41 -48 -16 -67 12 -9 13 -15 4 -24 -8 -8 -14 -5 -22
13 -6 13 -19 39 -31 58 -13 22 -17 37 -10 44 15 15 29 0 23 -28 -2 -15 0 -25
7 -25 6 0 11 11 11 25 0 16 6 25 16 25 8 0 13 4 9 9 -3 5 -1 12 5 16 6 4 8 11
5 16 -9 13 9 11 23 -3 9 -9 12 -9 13 3 1 7 2 21 3 29 2 21 -14 41 -26 34 -6
-4 -5 -9 2 -14 9 -6 6 -10 -9 -15 -11 -3 -21 -11 -21 -16 0 -6 -5 -7 -12 -3
-6 4 -8 3 -5 -3 10 -16 -16 -33 -41 -26 -12 3 -22 8 -22 12 1 14 27 39 45 43
11 2 18 10 16 19 -8 32 -5 43 14 47 11 2 27 10 35 17 8 8 29 17 45 21 17 4 32
10 35 14 3 3 21 11 40 16 43 13 61 2 58 -37z m-254 -48 c3 -5 0 -11 -7 -14 -8
-3 -14 1 -14 9 0 16 13 19 21 5z m91 -71 c3 -6 -1 -7 -9 -4 -18 7 -21 14 -7
14 6 0 13 -4 16 -10z m-172 -100 c3 -11 2 -20 -2 -20 -3 0 -12 9 -19 20 -10
16 -10 20 2 20 7 0 16 -9 19 -20z m16 -70 c0 -10 -3 -8 -9 5 -12 27 -12 43 0
25 5 -8 9 -22 9 -30z m178 -58 c23 -24 8 -25 -36 -2 -45 23 -55 44 -16 34 17
-4 25 -2 26 7 1 8 4 5 6 -5 3 -11 12 -26 20 -34z m-173 22 c3 -8 2 -12 -4 -9
-6 3 -10 10 -10 16 0 14 7 11 14 -7z m81 -124 c16 -22 26 -42 24 -44 -2 -2
-21 21 -42 52 -22 31 -32 51 -24 44 8 -7 27 -30 42 -52z m119 54 c13 -5 14
-10 5 -20 -8 -10 -6 -18 10 -35 29 -32 26 -42 -7 -25 -29 15 -57 60 -47 77 7
11 17 11 39 3z m96 -94 c0 -5 -2 -10 -4 -10 -3 0 -8 5 -11 10 -3 6 -1 10 4 10
6 0 11 -4 11 -10z m-115 -85 c22 -22 50 -45 60 -52 15 -9 16 -12 5 -12 -16 -1
-105 77 -131 114 -13 19 -13 19 5 5 11 -8 38 -33 61 -55z m86 40 c11 -4 17
-10 14 -15 -6 -10 -75 10 -75 21 0 8 24 5 61 -6z m159 -70 c7 -8 8 -15 2 -15
-5 0 -15 7 -22 15 -7 8 -8 15 -2 15 5 0 15 -7 22 -15z m-70 -106 c0 -6 -4 -7
-10 -4 -5 3 -10 11 -10 16 0 6 5 7 10 4 6 -3 10 -11 10 -16z m290 1 c0 -5 -7
-10 -15 -10 -8 0 -15 5 -15 10 0 6 7 10 15 10 8 0 15 -4 15 -10z m230 1 c0
-10 -26 -9 -36 2 -4 4 2 7 14 7 12 0 22 -4 22 -9z m60 -7 c0 -2 -12 -4 -26 -4
-14 0 -23 4 -20 9 6 8 46 4 46 -5z m-429 -32 c-7 -2 -18 1 -23 6 -8 8 -4 9 13
5 13 -4 18 -8 10 -11z m56 -28 c-3 -3 -12 -4 -19 -1 -8 3 -5 6 6 6 11 1 17 -2
13 -5z m129 -7 c9 -9 -63 -5 -77 4 -9 6 2 7 29 5 24 -2 46 -6 48 -9z m58 5 c2
-4 -7 -8 -22 -9 -24 -2 -24 -1 -7 7 11 5 21 9 22 9 1 1 4 -3 7 -7z"/>
<path d="M388 683 c-6 -22 16 -71 25 -56 7 12 4 33 -9 57 -11 18 -11 18 -16
-1z"/>
<path d="M476 525 c4 -8 8 -15 10 -15 2 0 4 7 4 15 0 8 -4 15 -10 15 -5 0 -7
-7 -4 -15z"/>
<path d="M570 374 c0 -13 18 -39 24 -34 2 3 -2 14 -10 24 -8 11 -14 16 -14 10z"/>
</g>
</svg>
